<svg width="72" height="8" viewBox="0 0 72 8" fill="none" xmlns="http://www.w3.org/2000/svg">
<g clip-path="url(#clip0_1_1455)">
<path d="M3.25 4.74998C4.74848 6.23695 6.77396 7.07136 8.885 7.07136C10.996 7.07136 13.0215 6.23695 14.52 4.74998C15.0623 4.20754 15.7062 3.77724 16.4148 3.48367C17.1234 3.19009 17.883 3.03899 18.65 3.03899C19.417 3.03899 20.1766 3.19009 20.8852 3.48367C21.5938 3.77724 22.2377 4.20754 22.78 4.74998C23.5178 5.49128 24.3953 6.07889 25.3616 6.47883C26.328 6.87878 27.3641 7.0831 28.41 7.07998C30.524 7.07901 32.5517 6.24133 34.05 4.74998C34.5923 4.20754 35.2362 3.77724 35.9448 3.48367C36.6534 3.19009 37.413 3.03899 38.18 3.03899C38.947 3.03899 39.7066 3.19009 40.4152 3.48367C41.1238 3.77724 41.7677 4.20754 42.31 4.74998C43.8081 6.23392 45.8314 7.0664 47.94 7.0664C50.0486 7.0664 52.0719 6.23392 53.57 4.74998C54.1123 4.20754 54.7562 3.77724 55.4648 3.48367C56.1734 3.19009 56.933 3.03899 57.7 3.03899C58.467 3.03899 59.2266 3.19009 59.9352 3.48367C60.6438 3.77724 61.2877 4.20754 61.83 4.74998C63.0871 6.00022 64.7238 6.79745 66.4832 7.01647C68.2425 7.23548 70.0248 6.86386 71.55 5.95998L69.98 4.40998C68.8917 4.93199 67.6679 5.10268 66.4783 4.89844C65.2886 4.69419 64.1919 4.1251 63.34 3.26998C61.8415 1.78302 59.816 0.948608 57.705 0.948608C55.594 0.948608 53.5685 1.78302 52.07 3.26998C51.5277 3.81243 50.8838 4.24272 50.1752 4.5363C49.4666 4.82987 48.707 4.98098 47.94 4.98098C47.173 4.98098 46.4134 4.82987 45.7048 4.5363C44.9962 4.24272 44.3523 3.81243 43.81 3.26998C42.3115 1.78302 40.286 0.948608 38.175 0.948608C36.064 0.948608 34.0385 1.78302 32.54 3.26998C31.9977 3.81243 31.3538 4.24272 30.6452 4.5363C29.9366 4.82987 29.177 4.98098 28.41 4.98098C27.643 4.98098 26.8834 4.82987 26.1748 4.5363C25.4662 4.24272 24.8223 3.81243 24.28 3.26998C22.7815 1.78302 20.756 0.948608 18.645 0.948608C16.534 0.948608 14.5085 1.78302 13.01 3.26998C12.4673 3.81042 11.8229 4.23801 11.114 4.52807C10.4052 4.81814 9.64589 4.96493 8.88 4.95998C8.11295 4.96066 7.35331 4.80996 6.6446 4.51653C5.9359 4.22309 5.29207 3.79269 4.75 3.24998C3.90171 2.41806 2.87607 1.789 1.75 1.40998L0 3.10998C1.23227 3.29714 2.3717 3.87561 3.25 4.75998V4.74998Z" fill="#FFA737"/>
</g>
<defs>
<clipPath id="clip0_1_1455">
<rect width="71.55" height="6.16" fill="white" transform="translate(0 0.919983)"/>
</clipPath>
</defs>
</svg>
